<svg width="771" height="281" viewBox="0 0 771 281" fill="none" xmlns="http://www.w3.org/2000/svg">
<path d="M128.983 109.359C129.377 107.499 129.712 105.624 130.175 103.781C132.121 96.0433 135.742 89.1582 141.017 83.1878C149.546 73.5352 160.21 67.6792 172.917 65.552C176.139 65.0126 179.384 64.7973 182.649 64.7983C198.245 64.8029 213.842 64.8004 229.438 64.8004C229.991 64.8004 230.543 64.8004 231.179 64.8004C231.231 65.2023 231.305 65.51 231.306 65.8177C231.311 83.4688 231.389 101.12 231.269 118.771C231.226 125.026 229.609 131.026 227.099 136.76C224.411 142.901 220.663 148.325 215.839 152.972C208.135 160.391 199.006 165.037 188.439 166.814C188.027 166.883 187.617 166.969 187.097 166.94C186.999 166.509 186.982 166.181 187.024 165.861C187.562 161.843 187.525 157.827 187.019 153.808C186.933 153.131 186.986 152.437 187.091 151.738C187.439 151.69 187.673 151.672 187.9 151.619C196.171 149.658 203.024 145.427 208.366 138.796C213.359 132.597 215.984 125.463 216.319 117.559C216.534 112.476 216.385 107.377 216.342 102.285C216.33 100.924 215.918 99.6216 215.164 98.4577C213.258 95.5198 209.498 94.1999 206.345 95.3602C202.996 96.5931 200.59 100.333 201.064 103.745C201.565 107.355 200.495 110.378 197.837 112.818C192.579 117.646 183.441 115.743 181.162 108.072C179.012 100.836 185.121 93.9587 192.705 95.1387C193.069 95.1953 193.448 95.2685 193.807 95.2234C195.557 95.0031 197.124 94.3432 198.495 93.2135C200.903 91.23 201.856 88.0812 200.908 85.1526C199.946 82.1806 197.395 80.0589 194.295 79.9612C190.049 79.8275 185.797 79.8355 181.548 79.8582C178.282 79.8756 175.04 80.2117 171.867 81.0465C162.515 83.5067 154.977 88.6028 149.582 96.6615C144.418 104.375 142.632 112.955 144.214 122.034C146.368 134.397 153.317 143.364 164.533 148.985C165.334 149.386 165.727 149.878 165.979 150.681C167.111 154.285 167.494 157.977 167.287 161.729C167.214 163.045 166.951 164.351 166.776 165.65C166.437 165.63 166.29 165.647 166.159 165.609C156.643 162.877 148.54 157.878 141.888 150.528C135.938 143.953 131.977 136.349 129.97 127.72C129.717 126.633 129.476 125.544 129.241 124.334C129.06 121.624 128.759 119.037 128.706 116.446C128.658 114.087 128.88 111.722 128.983 109.359Z" fill="white"/>
<path d="M187.622 152.6C187.633 153.283 188.024 153.905 188.11 154.578C188.615 158.579 188.208 162.646 187.672 166.647C187.629 166.965 187.673 167.223 187.673 167.659C187.239 170.011 186.922 172.361 186.31 174.538C183.801 183.477 179.059 191.103 172.295 197.442C165.872 203.461 158.394 207.654 149.888 210.011C144.877 211.399 139.778 211.996 134.589 211.992C119.086 211.979 103.583 211.987 88.0807 211.987C87.4342 211.987 86.7878 211.987 85.9919 211.987C85.9457 211.438 85.8761 210.995 85.876 210.552C85.8706 193.162 85.798 175.771 85.9105 158.381C85.9515 152.043 87.599 145.976 90.1636 140.181C92.8477 134.116 96.5884 128.766 101.37 124.172C107.765 118.028 115.237 113.736 123.845 111.504C125.729 111.016 127.666 110.732 129.699 110.376C129.716 112.75 129.495 115.104 129.543 117.453C129.596 120.033 129.896 122.608 129.966 125.314C121.826 127.112 115.104 131.027 109.731 137.182C103.874 143.89 100.95 151.763 100.784 160.64C100.701 165.056 100.757 169.475 100.781 173.893C100.785 174.676 100.857 175.476 101.035 176.237C101.988 180.31 105.827 182.322 109.036 181.984C112.335 181.636 115.128 179.088 115.804 175.812C116.041 174.663 115.892 173.425 115.856 172.23C115.668 166.052 120.805 160.662 127.862 161.767C131.944 162.406 135.205 165.622 136.058 169.716C136.91 173.813 135.151 177.997 131.704 180.279C129.48 181.752 127.041 182.027 124.484 181.805C121.71 181.565 119.45 182.615 117.675 184.653C115.615 187.018 115.24 189.761 116.535 192.584C117.825 195.396 120.08 196.932 123.269 196.921C125.41 196.913 127.552 196.923 129.694 196.919C132.673 196.913 135.668 197.092 138.63 196.856C148.706 196.055 157.238 191.967 164.075 184.474C169.261 178.79 172.275 172.093 173.007 164.463C173.825 155.939 171.894 148.018 167.106 140.868C163.457 135.421 158.679 131.226 152.754 128.384C151.796 127.924 151.256 127.31 150.938 126.294C149.826 122.74 149.466 119.102 149.715 115.418C149.799 114.17 149.697 112.824 150.417 111.616C150.69 111.665 150.921 111.684 151.139 111.75C151.985 112.005 152.835 112.25 153.668 112.543C162.278 115.569 169.625 120.475 175.632 127.348C180.349 132.744 183.799 138.865 185.894 145.717C186.585 147.976 187.053 150.304 187.622 152.6Z" fill="white"/>
<path d="M509.668 95.3581C509.693 94.8156 509.718 94.4079 509.751 93.8607C510.286 93.8607 510.742 93.8607 511.197 93.8607C523.155 93.8607 535.113 93.8195 547.071 93.8787C552.765 93.9069 558.31 94.825 563.423 97.5187C570.637 101.319 574.683 107.219 575.177 115.44C575.476 120.428 574.523 125.099 571.576 129.224C569.003 132.826 565.518 135.245 561.405 136.803C561.24 136.865 561.081 136.944 560.638 137.139C561.155 137.29 561.426 137.373 561.701 137.448C567.52 139.041 571.811 142.615 574.589 147.875C578.25 154.807 578.197 161.961 574.999 169.031C573.056 173.326 569.733 176.45 565.609 178.704C561.411 180.997 556.907 182.244 552.139 182.531C550.56 182.626 548.977 182.712 547.395 182.714C535.437 182.729 523.479 182.722 511.521 182.722C510.969 182.722 510.417 182.722 509.668 182.722C509.668 153.563 509.668 124.528 509.668 95.3581ZM558.578 160.301C558.72 158.775 558.998 157.248 558.98 155.724C558.922 151.054 556.577 147.809 552.44 145.812C549.951 144.61 547.262 144.329 544.54 144.322C539.402 144.308 534.265 144.318 529.127 144.318C528.673 144.318 528.219 144.318 527.795 144.318C527.497 145.958 527.552 167.031 527.857 168.146C528.335 168.146 528.842 168.146 529.349 168.146C534.673 168.146 539.998 168.187 545.322 168.121C546.939 168.101 548.589 167.941 550.162 167.578C554.12 166.666 557.146 164.552 558.578 160.301ZM537.514 108.437C534.259 108.437 531.004 108.437 527.69 108.437C527.69 115.821 527.69 123.035 527.69 130.305C528.034 130.34 528.304 130.391 528.574 130.391C534.227 130.396 539.879 130.41 545.531 130.387C547.465 130.379 549.336 129.935 551.082 129.122C553.897 127.811 555.807 125.694 556.556 122.615C557.061 120.54 557.07 118.461 556.569 116.394C556.084 114.397 555.099 112.692 553.507 111.343C551.069 109.277 548.168 108.554 545.081 108.453C542.654 108.373 540.223 108.437 537.514 108.437Z" fill="white"/>
<path d="M274.392 180.295C269.437 178.311 264.984 175.687 261.119 172.155C254.563 166.165 250.231 158.827 248.123 150.192C247.446 147.423 247.111 144.608 246.884 141.762C246.43 136.07 246.963 130.48 248.433 124.991C250.378 117.727 253.925 111.334 259.226 105.96C266.814 98.2655 276.064 94.0841 286.767 93.0183C294.829 92.2156 302.724 92.9632 310.292 95.9512C321.421 100.345 329.157 108.101 333.099 119.492C333.189 119.753 333.241 120.03 333.287 120.303C333.301 120.381 333.234 120.474 333.171 120.655C332.857 120.691 332.5 120.766 332.143 120.767C326.07 120.774 319.997 120.761 313.924 120.787C313.177 120.79 312.749 120.547 312.366 119.897C308.971 114.132 303.818 110.879 297.331 109.729C291.599 108.714 285.971 109.207 280.602 111.584C274.796 114.154 270.686 118.455 268.046 124.194C265.647 129.409 264.944 134.935 265.257 140.593C265.552 145.931 266.869 151.007 269.822 155.552C273.766 161.626 279.326 165.362 286.417 166.725C291.62 167.725 296.815 167.642 301.912 166.01C308.544 163.885 313.09 159.454 315.929 153.189C316.792 151.284 317.509 149.316 317.832 147.03C317.216 146.994 316.683 146.936 316.15 146.936C307.227 146.93 298.305 146.932 289.382 146.931C288.786 146.931 288.189 146.931 287.638 146.931C287.302 145.676 287.271 134.742 287.556 133.411C288.697 133.123 334.099 133.103 335.504 133.417C335.53 133.835 335.584 134.288 335.585 134.741C335.591 139.225 335.605 143.71 335.581 148.195C335.569 150.521 334.804 152.703 334.02 154.842C330.307 164.981 323.729 172.711 314.302 177.994C308.289 181.363 301.829 183.06 294.943 183.41C287.895 183.769 281.088 182.839 274.392 180.295Z" fill="white"/>
<path d="M445.227 173.816C445.216 174.937 445.195 176.057 445.195 177.177C445.193 189.549 445.194 201.92 445.194 214.292C445.194 214.894 445.194 215.495 445.194 216.052C444.106 216.417 429.477 216.527 427.517 216.229C427.483 216.196 427.448 216.165 427.419 216.129C427.39 216.094 427.351 216.055 427.347 216.015C427.311 215.692 427.255 215.368 427.255 215.045C427.259 180.965 427.267 146.884 427.28 112.804C427.28 112.672 427.353 112.541 427.389 112.42C428.422 112.114 443.376 112.048 445.164 112.375C445.178 115.345 445.194 118.359 445.222 121.549C445.299 121.702 445.362 121.679 445.425 121.656C446.363 120.689 447.259 119.678 448.246 118.763C453.023 114.334 458.626 111.784 465.155 111.204C472.617 110.54 479.537 111.993 485.818 116.148C491.284 119.765 495.054 124.772 497.574 130.76C499.252 134.749 500.12 138.924 500.447 143.242C500.963 150.031 500.344 156.663 497.85 163.033C494.74 170.979 489.597 177.16 481.817 180.932C477.903 182.829 473.753 183.782 469.392 183.854C466.393 183.904 463.43 183.701 460.515 182.96C456.132 181.846 452.293 179.696 448.895 176.753C447.772 175.78 446.78 174.654 445.609 173.486C445.402 173.521 445.314 173.669 445.227 173.816ZM481.755 141.865C481.365 140.029 480.712 138.296 479.862 136.618C476.857 130.681 470.112 126.123 462.064 126.928C456.306 127.504 451.846 130.259 448.676 135.059C445.67 139.612 444.847 144.669 445.33 150.039C445.687 154.003 446.88 157.651 449.317 160.776C453.866 166.61 459.844 169.148 467.183 167.705C473.859 166.392 478.268 162.198 480.759 155.982C482.559 151.491 482.632 146.814 481.755 141.865Z" fill="white"/>
<path d="M395.453 173.177C393.502 175.521 391.311 177.597 388.743 179.263C384.874 181.773 380.661 183.264 376.055 183.689C371.303 184.126 366.639 183.808 362.124 182.189C354.785 179.557 349.282 174.737 345.428 167.997C342.555 162.972 340.993 157.551 340.529 151.789C340.068 146.071 340.323 140.418 341.941 134.882C343.844 128.375 347.109 122.693 352.325 118.266C357.161 114.162 362.752 111.817 369.087 111.224C373.071 110.851 376.992 111.051 380.878 112.059C385.032 113.136 388.653 115.201 391.877 117.967C393.144 119.054 394.229 120.353 395.493 121.631C395.588 121.707 395.681 121.722 395.681 121.722L395.71 121.625C395.71 118.553 395.71 115.481 395.71 112.471C396.981 112.102 412.233 112.063 413.696 112.388C413.696 135.728 413.696 159.091 413.696 182.446C412.693 182.786 397.681 182.872 395.794 182.517C395.781 179.547 395.767 176.533 395.758 173.337C395.659 173.163 395.556 173.17 395.453 173.177ZM364.594 131.789C362.861 133.64 361.366 135.649 360.389 138.016C358.882 141.666 358.395 145.441 358.734 149.377C358.997 152.444 359.74 155.329 361.136 158.077C364.475 164.653 371.781 168.972 379.23 167.968C385.507 167.121 390.178 163.959 393.227 158.431C394.715 155.734 395.361 152.799 395.623 149.731C395.976 145.606 395.504 141.63 393.876 137.825C390.466 129.855 381.809 125.444 373.479 127.179C370.136 127.875 367.268 129.408 364.594 131.789Z" fill="white"/>
<path d="M627.253 119.029C633.118 114.363 639.71 111.854 647.075 111.221C652.965 110.716 658.713 111.256 664.282 113.255C672.63 116.25 678.951 121.638 683.101 129.504C685.692 134.413 686.861 139.675 687.145 145.209C687.413 150.441 686.836 155.525 685.156 160.473C683.636 164.948 681.238 168.912 678.031 172.395C672.373 178.542 665.338 182.07 657.149 183.358C650.946 184.334 644.774 184.101 638.759 182.215C628.739 179.071 621.608 172.661 617.518 162.954C615.518 158.207 614.708 153.233 614.671 148.089C614.64 143.671 615.076 139.341 616.414 135.123C617.886 130.483 620.182 126.294 623.471 122.692C624.629 121.423 625.94 120.292 627.253 119.029ZM649.942 168.239C650.222 168.239 650.503 168.243 650.783 168.238C658.483 168.103 665.044 163.312 667.458 155.993C669.228 150.626 669.227 145.199 667.787 139.76C665.602 131.5 657.917 125.767 648.582 126.782C641.266 127.578 635.794 132.663 633.873 139.372C632.998 142.429 632.64 145.562 632.921 148.741C633.085 150.592 633.185 152.464 633.561 154.275C634.614 159.358 637.292 163.362 641.817 166.034C644.239 167.463 646.891 168.087 649.942 168.239Z" fill="white"/>
<path d="M587.504 133.713C587.504 126.491 587.504 119.409 587.504 112.252C593.523 112.252 599.382 112.252 605.343 112.252C605.343 135.703 605.343 159.109 605.343 182.619C599.47 182.619 593.613 182.619 587.726 182.619C587.72 182.614 587.679 182.588 587.648 182.554C587.618 182.522 587.578 182.48 587.578 182.443C587.551 166.246 587.528 150.049 587.504 133.713Z" fill="white"/>
<path d="M600.209 83.4336C604.491 84.6839 607.73 88.5077 607.681 93.5399C607.624 99.4253 603.247 103.127 598.756 103.773C595.375 104.259 592.244 103.759 589.526 101.59C586.069 98.8321 585.005 95.156 585.918 90.9614C586.761 87.0835 589.317 84.6432 593.073 83.4486C595.407 82.7062 597.754 82.7893 600.209 83.4336Z" fill="white"/>
<path d="M395.522 173.203C395.556 173.17 395.659 173.163 395.748 173.208C395.686 173.249 395.638 173.239 395.522 173.203Z" fill="#0B1323"/>
<path d="M445.323 173.731C445.314 173.669 445.402 173.521 445.54 173.413C445.533 173.516 445.476 173.581 445.323 173.731Z" fill="#0B1323"/>
<path d="M395.671 121.622C395.705 121.625 395.677 121.718 395.677 121.718C395.677 121.718 395.588 121.704 395.578 121.669C395.568 121.635 395.636 121.619 395.671 121.622Z" fill="#0B1323"/>
<path d="M445.373 121.644C445.358 121.678 445.297 121.7 445.235 121.676C445.234 121.63 445.328 121.633 445.373 121.644Z" fill="#0B1323"/>
</svg>
