<svg xmlns="http://www.w3.org/2000/svg" xmlns:xlink="http://www.w3.org/1999/xlink" width="600" zoomAndPan="magnify" viewBox="0 0 450 142.499996" height="190" preserveAspectRatio="xMidYMid meet" version="1.0"><path fill="#0b1323" d="M 47.160156 49.484375 C 47.433594 48.191406 47.664062 46.890625 47.988281 45.609375 C 49.335938 40.238281 51.851562 35.460938 55.511719 31.316406 C 61.429688 24.613281 68.832031 20.550781 77.652344 19.074219 C 79.886719 18.699219 82.140625 18.546875 84.40625 18.550781 C 95.230469 18.550781 106.054688 18.550781 116.878906 18.550781 C 117.261719 18.550781 117.648438 18.550781 118.089844 18.550781 C 118.125 18.828125 118.175781 19.042969 118.175781 19.257812 C 118.179688 31.511719 118.234375 43.761719 118.152344 56.015625 C 118.121094 60.359375 117 64.523438 115.257812 68.503906 C 113.390625 72.765625 110.789062 76.53125 107.441406 79.757812 C 102.09375 84.910156 95.757812 88.132812 88.425781 89.367188 C 88.136719 89.414062 87.855469 89.476562 87.492188 89.453125 C 87.425781 89.15625 87.414062 88.925781 87.441406 88.707031 C 87.816406 85.917969 87.789062 83.128906 87.4375 80.339844 C 87.378906 79.867188 87.417969 79.386719 87.488281 78.902344 C 87.730469 78.867188 87.894531 78.855469 88.050781 78.820312 C 93.789062 77.457031 98.546875 74.519531 102.253906 69.917969 C 105.71875 65.613281 107.542969 60.660156 107.773438 55.175781 C 107.921875 51.644531 107.820312 48.105469 107.789062 44.570312 C 107.78125 43.628906 107.496094 42.722656 106.972656 41.914062 C 105.648438 39.875 103.039062 38.960938 100.851562 39.765625 C 98.527344 40.621094 96.859375 43.21875 97.1875 45.585938 C 97.535156 48.089844 96.792969 50.191406 94.945312 51.882812 C 91.296875 55.234375 84.957031 53.914062 83.375 48.589844 C 81.882812 43.566406 86.121094 38.792969 91.386719 39.609375 C 91.636719 39.652344 91.902344 39.703125 92.148438 39.671875 C 93.363281 39.515625 94.453125 39.058594 95.402344 38.273438 C 97.074219 36.898438 97.738281 34.710938 97.078125 32.679688 C 96.410156 30.617188 94.640625 29.144531 92.488281 29.074219 C 89.542969 28.984375 86.589844 28.988281 83.640625 29.003906 C 81.375 29.015625 79.125 29.25 76.921875 29.828125 C 70.433594 31.535156 65.199219 35.074219 61.457031 40.667969 C 57.871094 46.023438 56.632812 51.980469 57.730469 58.28125 C 59.226562 66.863281 64.046875 73.089844 71.832031 76.992188 C 72.390625 77.269531 72.660156 77.609375 72.835938 78.167969 C 73.621094 80.667969 73.886719 83.234375 73.746094 85.835938 C 73.695312 86.75 73.511719 87.65625 73.390625 88.558594 C 73.15625 88.546875 73.050781 88.558594 72.960938 88.53125 C 66.355469 86.632812 60.734375 83.164062 56.117188 78.0625 C 51.988281 73.496094 49.238281 68.21875 47.84375 62.230469 C 47.667969 61.472656 47.5 60.71875 47.339844 59.878906 C 47.214844 57.996094 47.003906 56.199219 46.96875 54.402344 C 46.933594 52.765625 47.089844 51.125 47.160156 49.484375 Z M 47.160156 49.484375 " fill-opacity="1" fill-rule="nonzero"/><path fill="#0b1323" d="M 87.859375 79.5 C 87.863281 79.972656 88.136719 80.40625 88.195312 80.871094 C 88.546875 83.652344 88.265625 86.472656 87.890625 89.25 C 87.863281 89.472656 87.894531 89.652344 87.894531 89.953125 C 87.589844 91.585938 87.371094 93.21875 86.945312 94.730469 C 85.207031 100.933594 81.914062 106.226562 77.21875 110.628906 C 72.761719 114.808594 67.570312 117.71875 61.667969 119.355469 C 58.191406 120.316406 54.652344 120.730469 51.050781 120.730469 C 40.289062 120.71875 29.53125 120.726562 18.773438 120.726562 C 18.324219 120.726562 17.875 120.726562 17.320312 120.726562 C 17.289062 120.34375 17.242188 120.035156 17.242188 119.730469 C 17.238281 107.65625 17.1875 95.585938 17.265625 83.511719 C 17.292969 79.113281 18.4375 74.902344 20.21875 70.878906 C 22.082031 66.667969 24.675781 62.953125 27.996094 59.765625 C 32.433594 55.5 37.621094 52.519531 43.59375 50.972656 C 44.902344 50.632812 46.246094 50.4375 47.65625 50.1875 C 47.667969 51.835938 47.515625 53.472656 47.546875 55.101562 C 47.585938 56.890625 47.792969 58.679688 47.84375 60.558594 C 42.191406 61.804688 37.527344 64.523438 33.796875 68.796875 C 29.734375 73.453125 27.703125 78.917969 27.589844 85.082031 C 27.53125 88.148438 27.570312 91.214844 27.585938 94.28125 C 27.589844 94.824219 27.640625 95.378906 27.761719 95.910156 C 28.425781 98.734375 31.089844 100.132812 33.316406 99.898438 C 35.605469 99.65625 37.542969 97.886719 38.011719 95.613281 C 38.175781 94.816406 38.074219 93.957031 38.050781 93.125 C 37.917969 88.839844 41.484375 85.097656 46.382812 85.863281 C 49.214844 86.308594 51.476562 88.539062 52.070312 91.382812 C 52.660156 94.226562 51.441406 97.128906 49.046875 98.714844 C 47.503906 99.738281 45.8125 99.925781 44.039062 99.773438 C 42.113281 99.605469 40.542969 100.335938 39.3125 101.75 C 37.882812 103.390625 37.621094 105.296875 38.519531 107.257812 C 39.414062 109.207031 40.980469 110.273438 43.195312 110.265625 C 44.679688 110.261719 46.167969 110.269531 47.652344 110.265625 C 49.722656 110.261719 51.800781 110.386719 53.855469 110.222656 C 60.847656 109.664062 66.769531 106.828125 71.515625 101.625 C 75.113281 97.679688 77.207031 93.03125 77.714844 87.734375 C 78.28125 81.816406 76.941406 76.320312 73.617188 71.355469 C 71.085938 67.574219 67.769531 64.664062 63.65625 62.691406 C 62.992188 62.371094 62.617188 61.945312 62.398438 61.238281 C 61.625 58.773438 61.375 56.246094 61.546875 53.6875 C 61.605469 52.824219 61.535156 51.886719 62.035156 51.050781 C 62.226562 51.082031 62.386719 51.097656 62.535156 51.140625 C 63.125 51.320312 63.714844 51.488281 64.292969 51.691406 C 70.269531 53.792969 75.367188 57.199219 79.535156 61.96875 C 82.808594 65.714844 85.203125 69.964844 86.660156 74.722656 C 87.136719 76.289062 87.460938 77.90625 87.859375 79.5 Z M 87.859375 79.5 " fill-opacity="1" fill-rule="nonzero"/><path fill="#0b1323" d="M 311.371094 39.761719 C 311.386719 39.386719 311.40625 39.105469 311.429688 38.722656 C 311.800781 38.722656 312.117188 38.722656 312.433594 38.722656 C 320.730469 38.722656 329.03125 38.695312 337.328125 38.738281 C 341.28125 38.757812 345.128906 39.394531 348.679688 41.261719 C 353.6875 43.902344 356.492188 47.996094 356.835938 53.703125 C 357.042969 57.167969 356.382812 60.410156 354.335938 63.273438 C 352.550781 65.773438 350.132812 67.453125 347.277344 68.535156 C 347.164062 68.578125 347.054688 68.632812 346.746094 68.765625 C 347.105469 68.871094 347.292969 68.929688 347.484375 68.980469 C 351.523438 70.085938 354.5 72.570312 356.429688 76.21875 C 358.96875 81.03125 358.933594 86 356.714844 90.90625 C 355.363281 93.886719 353.058594 96.054688 350.195312 97.621094 C 347.28125 99.210938 344.15625 100.078125 340.847656 100.277344 C 339.75 100.34375 338.652344 100.402344 337.554688 100.40625 C 329.253906 100.414062 320.957031 100.410156 312.65625 100.410156 C 312.273438 100.410156 311.890625 100.410156 311.371094 100.410156 C 311.371094 80.167969 311.371094 60.011719 311.371094 39.761719 Z M 345.316406 84.847656 C 345.414062 83.785156 345.609375 82.726562 345.59375 81.667969 C 345.554688 78.425781 343.925781 76.175781 341.054688 74.789062 C 339.328125 73.953125 337.460938 73.757812 335.574219 73.753906 C 332.007812 73.742188 328.441406 73.75 324.875 73.75 C 324.5625 73.75 324.246094 73.75 323.953125 73.75 C 323.746094 74.890625 323.78125 89.519531 323.996094 90.292969 C 324.328125 90.292969 324.679688 90.292969 325.03125 90.292969 C 328.726562 90.292969 332.421875 90.320312 336.117188 90.273438 C 337.238281 90.261719 338.382812 90.148438 339.476562 89.898438 C 342.222656 89.265625 344.324219 87.796875 345.316406 84.847656 Z M 330.695312 48.84375 C 328.4375 48.84375 326.179688 48.84375 323.878906 48.84375 C 323.878906 53.96875 323.878906 58.976562 323.878906 64.023438 C 324.117188 64.046875 324.304688 64.082031 324.492188 64.082031 C 328.414062 64.085938 332.339844 64.097656 336.261719 64.078125 C 337.601562 64.074219 338.902344 63.765625 340.113281 63.203125 C 342.066406 62.292969 343.394531 60.820312 343.914062 58.683594 C 344.261719 57.246094 344.269531 55.800781 343.921875 54.367188 C 343.585938 52.980469 342.902344 51.796875 341.796875 50.859375 C 340.105469 49.425781 338.089844 48.925781 335.949219 48.855469 C 334.265625 48.796875 332.578125 48.84375 330.695312 48.84375 Z M 330.695312 48.84375 " fill-opacity="1" fill-rule="nonzero"/><path fill="#0b1323" d="M 148.078125 98.726562 C 144.640625 97.347656 141.550781 95.527344 138.867188 93.074219 C 134.316406 88.917969 131.3125 83.824219 129.847656 77.828125 C 129.378906 75.90625 129.144531 73.953125 128.988281 71.976562 C 128.671875 68.023438 129.042969 64.144531 130.0625 60.335938 C 131.414062 55.292969 133.875 50.855469 137.554688 47.125 C 142.820312 41.78125 149.238281 38.878906 156.667969 38.140625 C 162.261719 37.582031 167.742188 38.101562 172.996094 40.175781 C 180.71875 43.226562 186.089844 48.609375 188.824219 56.515625 C 188.886719 56.699219 188.921875 56.890625 188.953125 57.078125 C 188.964844 57.132812 188.917969 57.199219 188.875 57.324219 C 188.65625 57.347656 188.410156 57.402344 188.160156 57.402344 C 183.945312 57.40625 179.730469 57.398438 175.515625 57.414062 C 174.996094 57.417969 174.699219 57.25 174.433594 56.796875 C 172.078125 52.796875 168.503906 50.539062 164 49.738281 C 160.023438 49.035156 156.117188 49.378906 152.390625 51.027344 C 148.359375 52.8125 145.507812 55.796875 143.675781 59.78125 C 142.011719 63.402344 141.523438 67.238281 141.738281 71.164062 C 141.945312 74.871094 142.859375 78.394531 144.90625 81.550781 C 147.644531 85.765625 151.503906 88.359375 156.425781 89.304688 C 160.035156 90 163.640625 89.941406 167.179688 88.808594 C 171.78125 87.332031 174.9375 84.257812 176.90625 79.910156 C 177.507812 78.585938 178.003906 77.21875 178.230469 75.632812 C 177.800781 75.609375 177.429688 75.566406 177.0625 75.566406 C 170.867188 75.5625 164.675781 75.566406 158.484375 75.566406 C 158.070312 75.566406 157.65625 75.566406 157.273438 75.566406 C 157.039062 74.695312 157.019531 67.101562 157.214844 66.179688 C 158.007812 65.980469 189.519531 65.964844 190.492188 66.183594 C 190.511719 66.472656 190.550781 66.789062 190.550781 67.101562 C 190.554688 70.214844 190.5625 73.328125 190.546875 76.441406 C 190.539062 78.058594 190.007812 79.570312 189.464844 81.054688 C 186.886719 88.09375 182.320312 93.460938 175.777344 97.128906 C 171.605469 99.464844 167.121094 100.644531 162.34375 100.886719 C 157.449219 101.136719 152.726562 100.492188 148.078125 98.726562 Z M 148.078125 98.726562 " fill-opacity="1" fill-rule="nonzero"/><path fill="#0b1323" d="M 266.644531 94.226562 C 266.636719 95.007812 266.625 95.785156 266.625 96.5625 C 266.621094 105.148438 266.625 113.738281 266.625 122.324219 C 266.625 122.742188 266.625 123.160156 266.625 123.546875 C 265.867188 123.800781 255.714844 123.878906 254.355469 123.671875 C 254.332031 123.648438 254.308594 123.625 254.285156 123.601562 C 254.265625 123.578125 254.238281 123.550781 254.238281 123.523438 C 254.210938 123.296875 254.171875 123.074219 254.171875 122.847656 C 254.175781 99.191406 254.179688 75.53125 254.191406 51.875 C 254.191406 51.78125 254.242188 51.691406 254.265625 51.609375 C 254.984375 51.394531 265.363281 51.347656 266.601562 51.578125 C 266.613281 53.636719 266.625 55.730469 266.640625 57.945312 C 266.695312 58.050781 266.738281 58.035156 266.785156 58.019531 C 267.433594 57.347656 268.054688 56.644531 268.742188 56.011719 C 272.058594 52.9375 275.945312 51.167969 280.476562 50.761719 C 285.65625 50.300781 290.457031 51.3125 294.816406 54.195312 C 298.613281 56.707031 301.226562 60.183594 302.976562 64.339844 C 304.140625 67.109375 304.742188 70.007812 304.972656 73.003906 C 305.328125 77.714844 304.898438 82.320312 303.167969 86.742188 C 301.011719 92.257812 297.441406 96.550781 292.039062 99.167969 C 289.324219 100.484375 286.445312 101.144531 283.417969 101.195312 C 281.335938 101.230469 279.28125 101.089844 277.257812 100.574219 C 274.214844 99.800781 271.550781 98.308594 269.191406 96.265625 C 268.414062 95.589844 267.722656 94.808594 266.910156 94 C 266.765625 94.023438 266.707031 94.125 266.644531 94.226562 Z M 291.996094 72.046875 C 291.726562 70.773438 291.273438 69.570312 290.683594 68.40625 C 288.597656 64.285156 283.917969 61.121094 278.332031 61.679688 C 274.335938 62.078125 271.238281 63.992188 269.039062 67.324219 C 266.953125 70.484375 266.382812 73.996094 266.71875 77.722656 C 266.964844 80.472656 267.792969 83.007812 269.484375 85.175781 C 272.640625 89.226562 276.789062 90.988281 281.882812 89.984375 C 286.519531 89.074219 289.578125 86.164062 291.308594 81.847656 C 292.554688 78.730469 292.605469 75.484375 291.996094 72.046875 Z M 291.996094 72.046875 " fill-opacity="1" fill-rule="nonzero"/><path fill="#0b1323" d="M 232.101562 93.785156 C 230.746094 95.410156 229.226562 96.851562 227.445312 98.007812 C 224.757812 99.75 221.835938 100.785156 218.636719 101.082031 C 215.339844 101.382812 212.101562 101.164062 208.96875 100.039062 C 203.875 98.214844 200.054688 94.867188 197.382812 90.1875 C 195.386719 86.699219 194.304688 82.9375 193.980469 78.9375 C 193.660156 74.96875 193.839844 71.042969 194.960938 67.199219 C 196.28125 62.683594 198.546875 58.738281 202.167969 55.664062 C 205.523438 52.816406 209.40625 51.1875 213.800781 50.777344 C 216.566406 50.519531 219.289062 50.65625 221.984375 51.355469 C 224.867188 52.105469 227.382812 53.539062 229.617188 55.457031 C 230.5 56.210938 231.25 57.113281 232.128906 58 C 232.195312 58.054688 232.257812 58.066406 232.257812 58.066406 L 232.277344 57.996094 C 232.277344 55.863281 232.277344 53.734375 232.277344 51.644531 C 233.160156 51.386719 243.746094 51.359375 244.761719 51.585938 C 244.761719 67.789062 244.761719 84.003906 244.761719 100.21875 C 244.066406 100.453125 233.648438 100.515625 232.335938 100.269531 C 232.328125 98.207031 232.320312 96.113281 232.3125 93.894531 C 232.242188 93.773438 232.171875 93.777344 232.101562 93.785156 Z M 210.683594 65.054688 C 209.480469 66.339844 208.441406 67.734375 207.765625 69.375 C 206.71875 71.910156 206.382812 74.53125 206.617188 77.261719 C 206.800781 79.390625 207.316406 81.394531 208.285156 83.300781 C 210.601562 87.867188 215.671875 90.863281 220.839844 90.167969 C 225.199219 89.582031 228.441406 87.386719 230.554688 83.546875 C 231.589844 81.675781 232.035156 79.636719 232.21875 77.507812 C 232.464844 74.644531 232.136719 71.882812 231.007812 69.242188 C 228.640625 63.710938 222.632812 60.648438 216.851562 61.851562 C 214.53125 62.335938 212.539062 63.402344 210.683594 65.054688 Z M 210.683594 65.054688 " fill-opacity="1" fill-rule="nonzero"/><path fill="#0b1323" d="M 392.980469 56.195312 C 397.050781 52.957031 401.625 51.214844 406.738281 50.773438 C 410.824219 50.425781 414.8125 50.800781 418.679688 52.1875 C 424.472656 54.265625 428.859375 58.007812 431.742188 63.46875 C 433.539062 66.875 434.351562 70.527344 434.546875 74.371094 C 434.734375 78 434.332031 81.53125 433.167969 84.964844 C 432.113281 88.070312 430.449219 90.824219 428.222656 93.242188 C 424.292969 97.507812 419.410156 99.957031 413.730469 100.851562 C 409.421875 101.527344 405.140625 101.367188 400.964844 100.058594 C 394.011719 97.875 389.0625 93.425781 386.222656 86.6875 C 384.835938 83.390625 384.273438 79.9375 384.246094 76.367188 C 384.226562 73.300781 384.527344 70.296875 385.457031 67.367188 C 386.476562 64.148438 388.070312 61.238281 390.355469 58.738281 C 391.160156 57.855469 392.066406 57.070312 392.980469 56.195312 Z M 408.726562 90.355469 C 408.921875 90.355469 409.117188 90.359375 409.308594 90.355469 C 414.65625 90.261719 419.207031 86.9375 420.882812 81.855469 C 422.113281 78.128906 422.109375 74.363281 421.113281 70.585938 C 419.59375 64.851562 414.261719 60.871094 407.78125 61.578125 C 402.707031 62.128906 398.90625 65.660156 397.574219 70.316406 C 396.964844 72.4375 396.71875 74.613281 396.914062 76.820312 C 397.027344 78.105469 397.097656 79.40625 397.359375 80.664062 C 398.089844 84.191406 399.945312 86.96875 403.085938 88.824219 C 404.769531 89.816406 406.609375 90.25 408.726562 90.355469 Z M 408.726562 90.355469 " fill-opacity="1" fill-rule="nonzero"/><path fill="#0b1323" d="M 365.390625 66.390625 C 365.390625 61.375 365.390625 56.460938 365.390625 51.492188 C 369.570312 51.492188 373.636719 51.492188 377.773438 51.492188 C 377.773438 67.769531 377.773438 84.019531 377.773438 100.339844 C 373.695312 100.339844 369.632812 100.339844 365.546875 100.339844 C 365.542969 100.335938 365.511719 100.316406 365.492188 100.292969 C 365.472656 100.269531 365.445312 100.242188 365.445312 100.214844 C 365.425781 88.972656 365.410156 77.730469 365.390625 66.390625 Z M 365.390625 66.390625 " fill-opacity="1" fill-rule="nonzero"/><path fill="#0b1323" d="M 374.210938 31.484375 C 377.183594 32.355469 379.429688 35.007812 379.394531 38.5 C 379.355469 42.585938 376.316406 45.15625 373.203125 45.605469 C 370.855469 45.941406 368.683594 45.59375 366.796875 44.089844 C 364.394531 42.175781 363.65625 39.625 364.292969 36.710938 C 364.875 34.019531 366.648438 32.324219 369.257812 31.496094 C 370.878906 30.980469 372.507812 31.039062 374.210938 31.484375 Z M 374.210938 31.484375 " fill-opacity="1" fill-rule="nonzero"/><path fill="#0b1323" d="M 232.148438 93.800781 C 232.171875 93.777344 232.242188 93.773438 232.304688 93.804688 C 232.261719 93.835938 232.230469 93.828125 232.148438 93.800781 Z M 232.148438 93.800781 " fill-opacity="1" fill-rule="nonzero"/><path fill="#0b1323" d="M 266.710938 94.167969 C 266.707031 94.125 266.765625 94.023438 266.863281 93.949219 C 266.859375 94.019531 266.820312 94.066406 266.710938 94.167969 Z M 266.710938 94.167969 " fill-opacity="1" fill-rule="nonzero"/><path fill="#0b1323" d="M 232.253906 57.996094 C 232.277344 57.996094 232.257812 58.0625 232.257812 58.0625 C 232.257812 58.0625 232.195312 58.050781 232.1875 58.027344 C 232.179688 58.003906 232.226562 57.992188 232.253906 57.996094 Z M 232.253906 57.996094 " fill-opacity="1" fill-rule="nonzero"/><path fill="#0b1323" d="M 266.746094 58.011719 C 266.738281 58.035156 266.695312 58.050781 266.652344 58.03125 C 266.652344 58 266.714844 58.003906 266.746094 58.011719 Z M 266.746094 58.011719 " fill-opacity="1" fill-rule="nonzero"/></svg>